<svg xmlns="http://www.w3.org/2000/svg" width="193" height="193" viewBox="0 0 193 193">
  <path id="Exclusion_1" data-name="Exclusion 1" d="M-21,258H-134a39.748,39.748,0,0,1-15.57-3.143,39.866,39.866,0,0,1-12.714-8.572,39.868,39.868,0,0,1-8.572-12.715A39.751,39.751,0,0,1-174,218V105a39.751,39.751,0,0,1,3.143-15.57,39.868,39.868,0,0,1,8.572-12.715,39.866,39.866,0,0,1,12.714-8.572A39.748,39.748,0,0,1-134,65H-21A39.748,39.748,0,0,1-5.43,68.143,39.866,39.866,0,0,1,7.284,76.716,39.868,39.868,0,0,1,15.857,89.43,39.751,39.751,0,0,1,19,105V218a39.751,39.751,0,0,1-3.143,15.57,39.868,39.868,0,0,1-8.572,12.715A39.866,39.866,0,0,1-5.43,254.857,39.748,39.748,0,0,1-21,258Zm-94.985-63.554.011.454-.168.291.176.1.793,35.237,30.031-17.339-3.349-2.035,3.525,2.035,59-102.191L-57.143,93l-58.639,101.569Z" transform="translate(174 -65)" fill="#e7ff99"/>
</svg>
