<svg xmlns="http://www.w3.org/2000/svg" width="500" height="500"><defs><clipPath id="a"><path d="M0 0h500v500H0z"/></clipPath></defs><g clip-path="url(#a)" fill="none" stroke="#000"><path d="M46.57246 487.68062c3.7275-2.0661 114.56456-34.41508 187.53828-153.90879s64.88162-117.91827 113.66248-250.04491" stroke-linecap="round" stroke-width="7.002940000000001"/><g transform="rotate(-13 1459.52346 -186.51394)" stroke-width="5"><ellipse cx="17.636" cy="67" rx="17.636" ry="67" stroke="none"/><ellipse cx="17.636" cy="67" rx="15.136" ry="64.5"/></g><g transform="rotate(-24 807.84139 -104.85664)" stroke-width="5"><ellipse cx="17" cy="55.5" rx="17" ry="55.5" stroke="none"/><ellipse cx="17" cy="55.5" rx="14.5" ry="53"/></g><g transform="rotate(89 -90.35412 345.52285)" stroke-width="5"><ellipse cx="17" cy="67" rx="17" ry="67" stroke="none"/><ellipse cx="17" cy="67" rx="14.5" ry="64.5"/></g><g transform="rotate(85 -64.18621 356.00271)" stroke-width="5"><ellipse cx="14" cy="67" rx="14" ry="67" stroke="none"/><ellipse cx="14" cy="67" rx="11.5" ry="64.5"/></g><g transform="rotate(84 -25.15547 358.17815)" stroke-width="5"><ellipse cx="17" cy="67" rx="17" ry="67" stroke="none"/><ellipse cx="17" cy="67" rx="14.5" ry="64.5"/></g><g transform="rotate(74 -11.85913 375.99575)" stroke-width="5"><ellipse cx="19.725" cy="67" rx="19.725" ry="67" stroke="none"/><ellipse cx="19.725" cy="67" rx="17.225" ry="64.5"/></g><g transform="rotate(74.99 41.28825 374.1909)" stroke-width="5"><ellipse cx="17" cy="72.5" rx="17" ry="72.5" stroke="none"/><ellipse cx="17" cy="72.5" rx="14.5" ry="70"/></g><g transform="rotate(72 60.2426 368.57556)" stroke-width="5"><ellipse cx="17" cy="59.556" rx="17" ry="59.556" stroke="none"/><ellipse cx="17" cy="59.556" rx="14.5" ry="57.056"/></g><g transform="rotate(-20 814.12625 -248.80166)" stroke-width="5"><ellipse cx="19.5" cy="67" rx="19.5" ry="67" stroke="none"/><ellipse cx="19.5" cy="67" rx="17" ry="64.5"/></g><g transform="rotate(-30 528.9025 -176.707)" stroke-width="5"><ellipse cx="17" cy="60.983" rx="17" ry="60.983" stroke="none"/><ellipse cx="17" cy="60.983" rx="14.5" ry="58.483"/></g><g transform="rotate(-28 464.78005 -267.35764)" stroke-width="5"><ellipse cx="17" cy="67" rx="17" ry="67" stroke="none"/><ellipse cx="17" cy="67" rx="14.5" ry="64.5"/></g><g transform="rotate(-25 421.94738 -399.48538)" stroke-width="5"><ellipse cx="17.339" cy="67" rx="17.339" ry="67" stroke="none"/><ellipse cx="17.339" cy="67" rx="14.839" ry="64.5"/></g><g transform="rotate(-29 324.04995 -409.81349)" stroke-width="5"><ellipse cx="17" cy="56.548" rx="17" ry="56.548" stroke="none"/><ellipse cx="17" cy="56.548" rx="14.5" ry="54.048"/></g><g transform="rotate(42 173.14802 529.21512)" stroke-width="5"><ellipse cx="17" cy="51.967" rx="17" ry="51.967" stroke="none"/><ellipse cx="17" cy="51.967" rx="14.5" ry="49.467"/></g><g transform="rotate(-11 185.12623 -1569.479)" stroke-width="5"><ellipse cx="17" cy="53.033" rx="17" ry="53.033" stroke="none"/><ellipse cx="17" cy="53.033" rx="14.5" ry="50.533"/></g><g transform="rotate(72 109.57364 356.87341)" stroke-width="5"><ellipse cx="17" cy="59.556" rx="17" ry="59.556" stroke="none"/><ellipse cx="17" cy="59.556" rx="14.5" ry="57.056"/></g><g transform="rotate(72 138.53243 332.70672)" stroke-width="5"><ellipse cx="17" cy="49.056" rx="17" ry="49.056" stroke="none"/><ellipse cx="17" cy="49.056" rx="14.5" ry="46.556"/></g><g transform="rotate(-29 324.04995 -409.81349)" stroke-width="5"><ellipse cx="17" cy="56.548" rx="17" ry="56.548" stroke="none"/><ellipse cx="17" cy="56.548" rx="14.5" ry="54.048"/></g><g transform="rotate(-29 295.755 -480.94374)" stroke-width="5"><ellipse cx="17" cy="42.048" rx="17" ry="42.048" stroke="none"/><ellipse cx="17" cy="42.048" rx="14.5" ry="39.548"/></g></g></svg><svg xmlns="http://www.w3.org/2000/svg" width="500" height="500"><defs><clipPath id="a"><path d="M0 0h500v500H0z"/></clipPath></defs><g clip-path="url(#a)" fill="none" stroke="#000"><path d="M46.57246 487.68062c3.7275-2.0661 114.56456-34.41508 187.53828-153.90879s64.88162-117.91827 113.66248-250.04491" stroke-linecap="round" stroke-width="7.002940000000001"/><g transform="rotate(-13 1459.52346 -186.51394)" stroke-width="5"><ellipse cx="17.636" cy="67" rx="17.636" ry="67" stroke="none"/><ellipse cx="17.636" cy="67" rx="15.136" ry="64.5"/></g><g transform="rotate(-24 807.84139 -104.85664)" stroke-width="5"><ellipse cx="17" cy="55.5" rx="17" ry="55.5" stroke="none"/><ellipse cx="17" cy="55.5" rx="14.5" ry="53"/></g><g transform="rotate(89 -90.35412 345.52285)" stroke-width="5"><ellipse cx="17" cy="67" rx="17" ry="67" stroke="none"/><ellipse cx="17" cy="67" rx="14.5" ry="64.5"/></g><g transform="rotate(85 -64.18621 356.00271)" stroke-width="5"><ellipse cx="14" cy="67" rx="14" ry="67" stroke="none"/><ellipse cx="14" cy="67" rx="11.5" ry="64.5"/></g><g transform="rotate(84 -25.15547 358.17815)" stroke-width="5"><ellipse cx="17" cy="67" rx="17" ry="67" stroke="none"/><ellipse cx="17" cy="67" rx="14.5" ry="64.5"/></g><g transform="rotate(74 -11.85913 375.99575)" stroke-width="5"><ellipse cx="19.725" cy="67" rx="19.725" ry="67" stroke="none"/><ellipse cx="19.725" cy="67" rx="17.225" ry="64.5"/></g><g transform="rotate(74.99 41.28825 374.1909)" stroke-width="5"><ellipse cx="17" cy="72.5" rx="17" ry="72.5" stroke="none"/><ellipse cx="17" cy="72.5" rx="14.5" ry="70"/></g><g transform="rotate(72 60.2426 368.57556)" stroke-width="5"><ellipse cx="17" cy="59.556" rx="17" ry="59.556" stroke="none"/><ellipse cx="17" cy="59.556" rx="14.5" ry="57.056"/></g><g transform="rotate(-20 814.12625 -248.80166)" stroke-width="5"><ellipse cx="19.5" cy="67" rx="19.5" ry="67" stroke="none"/><ellipse cx="19.5" cy="67" rx="17" ry="64.5"/></g><g transform="rotate(-30 528.9025 -176.707)" stroke-width="5"><ellipse cx="17" cy="60.983" rx="17" ry="60.983" stroke="none"/><ellipse cx="17" cy="60.983" rx="14.5" ry="58.483"/></g><g transform="rotate(-28 464.78005 -267.35764)" stroke-width="5"><ellipse cx="17" cy="67" rx="17" ry="67" stroke="none"/><ellipse cx="17" cy="67" rx="14.5" ry="64.5"/></g><g transform="rotate(-25 421.94738 -399.48538)" stroke-width="5"><ellipse cx="17.339" cy="67" rx="17.339" ry="67" stroke="none"/><ellipse cx="17.339" cy="67" rx="14.839" ry="64.5"/></g><g transform="rotate(-29 324.04995 -409.81349)" stroke-width="5"><ellipse cx="17" cy="56.548" rx="17" ry="56.548" stroke="none"/><ellipse cx="17" cy="56.548" rx="14.5" ry="54.048"/></g><g transform="rotate(42 173.14802 529.21512)" stroke-width="5"><ellipse cx="17" cy="51.967" rx="17" ry="51.967" stroke="none"/><ellipse cx="17" cy="51.967" rx="14.5" ry="49.467"/></g><g transform="rotate(-11 185.12623 -1569.479)" stroke-width="5"><ellipse cx="17" cy="53.033" rx="17" ry="53.033" stroke="none"/><ellipse cx="17" cy="53.033" rx="14.5" ry="50.533"/></g><g transform="rotate(72 109.57364 356.87341)" stroke-width="5"><ellipse cx="17" cy="59.556" rx="17" ry="59.556" stroke="none"/><ellipse cx="17" cy="59.556" rx="14.5" ry="57.056"/></g><g transform="rotate(72 138.53243 332.70672)" stroke-width="5"><ellipse cx="17" cy="49.056" rx="17" ry="49.056" stroke="none"/><ellipse cx="17" cy="49.056" rx="14.5" ry="46.556"/></g><g transform="rotate(-29 324.04995 -409.81349)" stroke-width="5"><ellipse cx="17" cy="56.548" rx="17" ry="56.548" stroke="none"/><ellipse cx="17" cy="56.548" rx="14.5" ry="54.048"/></g><g transform="rotate(-29 295.755 -480.94374)" stroke-width="5"><ellipse cx="17" cy="42.048" rx="17" ry="42.048" stroke="none"/><ellipse cx="17" cy="42.048" rx="14.5" ry="39.548"/></g></g></svg>