<svg xmlns="http://www.w3.org/2000/svg" xmlns:xlink="http://www.w3.org/1999/xlink" width="500" height="500" viewBox="0 0 500 500"><defs><clipPath id="b"><rect width="500" height="500"/></clipPath></defs><g id="a" clip-path="url(#b)"><rect width="500" height="500" fill="#fff"/><path d="M894.036,795.392c0-4.26,25.429-116.836-43.677-238.539s-71.65-113.865-163.524-220.539" transform="matrix(0.485, 0.875, -0.875, 0.485, 308.933, -680.366)" fill="none" stroke="#000" stroke-linecap="round" stroke-width="7"/><g transform="translate(79.364 323.541) rotate(-13)" fill="none" stroke="#000" stroke-width="5"><ellipse cx="17.636" cy="67" rx="17.636" ry="67" stroke="none"/><ellipse cx="17.636" cy="67" rx="15.136" ry="64.5" fill="none"/></g><g transform="matrix(0.914, -0.407, 0.407, 0.914, 112.573, 319.719)" fill="none" stroke="#000" stroke-width="5"><ellipse cx="17" cy="55.5" rx="17" ry="55.5" stroke="none"/><ellipse cx="17" cy="55.5" rx="14.5" ry="53" fill="none"/></g><g transform="translate(256.693 429.833) rotate(89)" fill="none" stroke="#000" stroke-width="5"><ellipse cx="17" cy="67" rx="17" ry="67" stroke="none"/><ellipse cx="17" cy="67" rx="14.5" ry="64.5" fill="none"/></g><g transform="translate(296.056 388.917) rotate(85)" fill="none" stroke="#000" stroke-width="5"><ellipse cx="14" cy="67" rx="14" ry="67" stroke="none"/><ellipse cx="14" cy="67" rx="11.5" ry="64.5" fill="none"/></g><g transform="translate(333.69 345.756) rotate(84)" fill="none" stroke="#000" stroke-width="5"><ellipse cx="17" cy="67" rx="17" ry="67" stroke="none"/><ellipse cx="17" cy="67" rx="14.5" ry="64.5" fill="none"/></g><g transform="translate(352.84 283.757) rotate(74)" fill="none" stroke="#000" stroke-width="5"><ellipse cx="19.725" cy="67" rx="19.725" ry="67" stroke="none"/><ellipse cx="19.725" cy="67" rx="17.225" ry="64.5" fill="none"/></g><g transform="matrix(0.259, 0.966, -0.966, 0.259, 392.063, 237.391)" fill="none" stroke="#000" stroke-width="5"><ellipse cx="17" cy="72.5" rx="17" ry="72.5" stroke="none"/><ellipse cx="17" cy="72.5" rx="14.5" ry="70" fill="none"/></g><g transform="matrix(0.309, 0.951, -0.951, 0.309, 392.143, 197.395)" fill="none" stroke="#000" stroke-width="5"><ellipse cx="17" cy="59.556" rx="17" ry="59.556" stroke="none"/><ellipse cx="17" cy="59.556" rx="14.5" ry="57.056" fill="none"/></g><g transform="translate(134.193 263.443) rotate(-20)" fill="none" stroke="#000" stroke-width="5"><ellipse cx="19.5" cy="67" rx="19.5" ry="67" stroke="none"/><ellipse cx="19.5" cy="67" rx="17" ry="64.5" fill="none"/></g><g transform="translate(159.213 240.777) rotate(-30)" fill="none" stroke="#000" stroke-width="5"><ellipse cx="17" cy="60.983" rx="17" ry="60.983" stroke="none"/><ellipse cx="17" cy="60.983" rx="14.5" ry="58.483" fill="none"/></g><g transform="matrix(0.883, -0.469, 0.469, 0.883, 179.77, 186.701)" fill="none" stroke="#000" stroke-width="5"><ellipse cx="17" cy="67" rx="17" ry="67" stroke="none"/><ellipse cx="17" cy="67" rx="14.5" ry="64.5" fill="none"/></g><g transform="translate(208.363 140.894) rotate(-25)" fill="none" stroke="#000" stroke-width="5"><ellipse cx="17.339" cy="67" rx="17.339" ry="67" stroke="none"/><ellipse cx="17.339" cy="67" rx="14.839" ry="64.5" fill="none"/></g><g transform="translate(239.311 105.72) rotate(-29)" fill="none" stroke="#000" stroke-width="5"><ellipse cx="17" cy="56.548" rx="17" ry="56.548" stroke="none"/><ellipse cx="17" cy="56.548" rx="14.5" ry="54.048" fill="none"/></g><g transform="translate(398.588 20.073) rotate(42)" fill="none" stroke="#000" stroke-width="5"><ellipse cx="17" cy="51.967" rx="17" ry="51.967" stroke="none"/><ellipse cx="17" cy="51.967" rx="14.5" ry="49.467" fill="none"/></g><g transform="translate(302.872 6.488) rotate(-11)" fill="none" stroke="#000" stroke-width="5"><ellipse cx="17" cy="53.033" rx="17" ry="53.033" stroke="none"/><ellipse cx="17" cy="53.033" rx="14.5" ry="50.533" fill="none"/></g><g transform="matrix(0.309, 0.951, -0.951, 0.309, 415.102, 142.395)" fill="none" stroke="#000" stroke-width="5"><ellipse cx="17" cy="59.556" rx="17" ry="59.556" stroke="none"/><ellipse cx="17" cy="59.556" rx="14.5" ry="57.056" fill="none"/></g><g transform="matrix(0.309, 0.951, -0.951, 0.309, 412.13, 98.156)" fill="none" stroke="#000" stroke-width="5"><ellipse cx="17" cy="49.056" rx="17" ry="49.056" stroke="none"/><ellipse cx="17" cy="49.056" rx="14.5" ry="46.556" fill="none"/></g><g transform="translate(239.311 105.72) rotate(-29)" fill="none" stroke="#000" stroke-width="5"><ellipse cx="17" cy="56.548" rx="17" ry="56.548" stroke="none"/><ellipse cx="17" cy="56.548" rx="14.5" ry="54.048" fill="none"/></g><g transform="translate(270.248 83.084) rotate(-29)" fill="none" stroke="#000" stroke-width="5"><ellipse cx="17" cy="42.048" rx="17" ry="42.048" stroke="none"/><ellipse cx="17" cy="42.048" rx="14.5" ry="39.548" fill="none"/></g></g></svg>